<svg width="17" height="16" viewBox="0 0 17 16" fill="none" xmlns="http://www.w3.org/2000/svg">
<path fill-rule="evenodd" clip-rule="evenodd" d="M10.2627 8.00033L15.5314 2.73135C16.1564 2.10733 16.1564 1.09276 15.5314 0.468975C14.9065 -0.156244 13.8941 -0.156244 13.2691 0.468975L8.00009 5.73771L2.73111 0.468975C2.10613 -0.156244 1.09371 -0.156244 0.468734 0.468975C-0.156245 1.093 -0.156245 2.10757 0.468734 2.73135L5.73771 8.00033L0.468734 13.2691C-0.156245 13.8933 -0.156245 14.9079 0.468734 15.5317C0.781463 15.8444 1.19093 16.0001 1.60064 16.0001C2.01035 16.0001 2.41982 15.8444 2.73231 15.5317L8.00129 10.2627L13.2703 15.5317C13.5828 15.8444 13.9922 16.0001 14.4019 16.0001C14.8119 16.0001 15.2211 15.8444 15.5338 15.5317C16.1588 14.9074 16.1588 13.8929 15.5338 13.2691L10.2627 8.00033Z" fill="#FA3E2C"/>
</svg>
