<svg width="56" height="56" viewBox="0 0 56 56" fill="none" xmlns="http://www.w3.org/2000/svg">
<path d="M54.32 12.342C54.1424 10.574 53.4158 8.90603 52.242 7.572C52.1743 7.49136 52.0912 7.42506 51.9975 7.37698C51.9038 7.32891 51.8014 7.30002 51.6964 7.29202C51.5914 7.28402 51.4859 7.29706 51.386 7.33039C51.2861 7.36371 51.1939 7.41665 51.1147 7.48609C51.0355 7.55554 50.971 7.64009 50.925 7.73479C50.8789 7.82949 50.8523 7.93243 50.8465 8.03758C50.8408 8.14273 50.8561 8.24796 50.8915 8.34712C50.927 8.44627 50.9819 8.53735 51.053 8.615C52.0092 9.70157 52.6015 11.06 52.747 12.5C53.2843 17.769 53.2843 23.079 52.747 28.348C52.5786 29.9989 51.8269 31.5356 50.627 32.682C49.4291 33.8265 47.8589 34.5011 46.204 34.582L45.604 34.61L44.417 32.057C44.351 31.915 44.2443 31.7957 44.1105 31.7144C43.9766 31.6331 43.8216 31.5933 43.6651 31.6002C43.5086 31.607 43.3577 31.6602 43.2315 31.7529C43.1052 31.8456 43.0094 31.9737 42.956 32.121L42 34.761C34.838 35.028 27.576 35.092 20.391 34.952L18.73 26.852C18.6951 26.6815 18.6049 26.5273 18.4734 26.4133C18.3419 26.2993 18.1765 26.2319 18.0028 26.2214C17.8291 26.2109 17.6568 26.258 17.5126 26.3554C17.3683 26.4528 17.2602 26.595 17.205 26.76L15.383 32.214L14.683 29.63C14.6403 29.4722 14.5497 29.3315 14.4237 29.2272C14.2977 29.123 14.1425 29.0604 13.9795 29.048C13.8164 29.0356 13.6535 29.0741 13.5132 29.1581C13.373 29.242 13.2621 29.3674 13.196 29.517L10.935 34.647L9.53004 34.581C7.87523 34.5 6.30502 33.8254 5.10703 32.681C3.90717 31.5346 3.15547 29.9979 2.98703 28.347C2.44978 23.078 2.44978 17.768 2.98703 12.499C3.15547 10.8481 3.90717 9.31138 5.10703 8.165C6.30621 7.02348 7.87629 6.35186 9.53004 6.273C19.7833 5.77967 30.0523 5.70027 40.312 6.035L41.641 10.953C41.6835 11.1112 41.7741 11.2522 41.9002 11.3567C42.0263 11.4612 42.1817 11.524 42.345 11.5364C42.5083 11.5488 42.6714 11.5102 42.8119 11.4259C42.9523 11.3417 43.0631 11.2159 43.129 11.066L45.261 6.23L46.207 6.274C47.1101 6.3155 47.996 6.53611 48.813 6.923C49.0027 7.01278 49.2202 7.02354 49.4178 6.95294C49.6153 6.88233 49.7768 6.73613 49.8665 6.5465C49.9563 6.35687 49.9671 6.13934 49.8965 5.94177C49.8259 5.7442 49.6797 5.58278 49.49 5.493C48.4846 5.01657 47.3945 4.74464 46.283 4.693C45.785 4.669 45.2877 4.646 44.791 4.624C44.6317 4.61661 44.474 4.65767 44.3385 4.74175C44.203 4.82583 44.0961 4.94899 44.032 5.095L42.582 8.377L41.682 5.056C41.6379 4.89277 41.5426 4.74799 41.4101 4.64289C41.2777 4.53778 41.115 4.47789 40.946 4.472C37.808 4.364 34.66 4.29567 31.502 4.267V3.958C31.501 3.17381 31.189 2.42205 30.6345 1.86755C30.08 1.31304 29.3282 1.00106 28.544 1L27.187 1C26.403 1.00132 25.6515 1.31342 25.0972 1.8679C24.5429 2.42237 24.2311 3.17399 24.23 3.958V4.267C19.292 4.314 14.356 4.455 9.45403 4.692C7.41993 4.79346 5.48972 5.6213 4.01418 7.0251C2.53863 8.42889 1.61568 10.3155 1.41303 12.342C0.864926 17.7181 0.864926 23.1359 1.41303 28.512C1.6159 30.5383 2.53896 32.4247 4.01448 33.8283C5.49 35.2319 7.42008 36.0596 9.45403 36.161C10.1074 36.193 10.7604 36.223 11.413 36.251C11.5722 36.2582 11.7297 36.217 11.865 36.133C12.0003 36.0489 12.107 35.9258 12.171 35.78L13.745 32.2L14.545 35.151C14.5893 35.315 14.6853 35.4605 14.8187 35.5657C14.9521 35.671 15.1158 35.7305 15.2857 35.7354C15.4555 35.7403 15.6225 35.6905 15.7618 35.5931C15.901 35.4958 16.0053 35.3562 16.059 35.195L17.778 30.051L18.972 35.882C19.0068 36.0588 19.1009 36.2184 19.2388 36.3344C19.3766 36.4504 19.5499 36.5159 19.73 36.52C21.2274 36.552 22.7274 36.5747 24.23 36.588V39.388C24.23 39.5978 24.3134 39.799 24.4617 39.9473C24.6101 40.0957 24.8112 40.179 25.021 40.179C25.2308 40.179 25.432 40.0957 25.5804 39.9473C25.7287 39.799 25.812 39.5978 25.812 39.388V36.6C26.482 36.6033 27.1527 36.605 27.824 36.605C28.524 36.605 29.224 36.603 29.924 36.599V44.575C29.724 45.1243 29.539 45.7043 29.369 46.315C28.7529 48.6336 28.4119 51.0167 28.353 53.415H25.81V42.555C25.81 42.3452 25.7267 42.144 25.5784 41.9957C25.43 41.8473 25.2288 41.764 25.019 41.764C24.8092 41.764 24.6081 41.8473 24.4597 41.9957C24.3114 42.144 24.228 42.3452 24.228 42.555V46.58C23.3084 45.8034 22.215 45.2601 21.0407 44.996C19.8663 44.7319 18.6456 44.7549 17.482 45.063C17.3349 45.0953 17.2 45.1688 17.0932 45.2751C16.9864 45.3813 16.9121 45.5158 16.879 45.6628C16.846 45.8097 16.8555 45.9631 16.9065 46.1048C16.9575 46.2466 17.0479 46.3708 17.167 46.463C17.7785 46.9996 18.3165 47.6146 18.767 48.292C19.835 49.8634 20.6452 51.5952 21.167 53.422H17.38C17.1702 53.422 16.9691 53.5053 16.8207 53.6537C16.6724 53.802 16.589 54.0032 16.589 54.213C16.589 54.4228 16.6724 54.624 16.8207 54.7723C16.9691 54.9207 17.1702 55.004 17.38 55.004H40.46C40.6698 55.004 40.871 54.9207 41.0194 54.7723C41.1677 54.624 41.251 54.4228 41.251 54.213C41.251 54.0032 41.1677 53.802 41.0194 53.6537C40.871 53.5053 40.6698 53.422 40.46 53.422H37.888C38.4099 51.5952 39.2201 49.8634 40.288 48.292C40.7389 47.6157 41.2769 47.0018 41.888 46.466C42.0076 46.3742 42.0984 46.2502 42.1498 46.1086C42.2013 45.967 42.2112 45.8136 42.1784 45.6665C42.1456 45.5194 42.0715 45.3848 41.9648 45.2784C41.8581 45.172 41.7232 45.0983 41.576 45.066C39.8988 44.6415 38.1281 44.785 36.541 45.474C37.2277 43.1304 38.5189 41.0087 40.285 39.322C40.4046 39.2302 40.4954 39.1062 40.5468 38.9646C40.5983 38.823 40.6082 38.6696 40.5754 38.5225C40.5426 38.3755 40.4685 38.2408 40.3618 38.1344C40.2551 38.028 40.1202 37.9543 39.973 37.922C38.8476 37.6198 37.6669 37.586 36.526 37.8233C35.3851 38.0605 34.3157 38.5622 33.404 39.288C32.6676 39.8923 32.027 40.6047 31.504 41.401V36.588C35.2021 36.5534 38.8995 36.4643 42.595 36.321C42.7522 36.3149 42.904 36.2621 43.031 36.1693C43.158 36.0765 43.2545 35.9479 43.308 35.8L43.792 34.463L44.392 35.758C44.4581 35.9002 44.565 36.0196 44.699 36.101C44.8331 36.1824 44.9884 36.2221 45.145 36.215L46.278 36.162C48.3121 36.0605 50.2423 35.2327 51.7179 33.8289C53.1934 32.4251 54.1164 30.5385 54.319 28.512C54.8672 23.1359 54.8672 17.7181 54.319 12.342H54.32ZM25.81 3.958C25.8106 3.59288 25.956 3.24289 26.2143 2.9849C26.4727 2.72691 26.8229 2.582 27.188 2.582H28.544C28.9091 2.58226 29.2591 2.72726 29.5174 2.98519C29.7757 3.24313 29.9212 3.59296 29.922 3.958V4.258C28.552 4.25067 27.1817 4.25067 25.811 4.258V3.958H25.81ZM19.33 46.415C20.2854 46.3853 21.2333 46.5932 22.0885 47.0201C22.9437 47.447 23.6796 48.0796 24.23 48.861V53.418H22.817C22.1674 50.8617 20.9785 48.474 19.33 46.415ZM39.73 46.415C38.0809 48.4728 36.8909 50.8595 36.24 53.415H32.63C33.1303 51.4881 34.0784 49.7065 35.397 48.215C35.9463 47.6197 36.6181 47.1505 37.3661 46.8398C38.1141 46.529 38.9206 46.3841 39.73 46.415ZM34.394 40.515C35.444 39.655 36.7742 39.2124 38.13 39.272C36.3523 41.5012 35.1039 44.105 34.479 46.887C32.7491 48.7117 31.5405 50.9671 30.979 53.418H29.93C29.9909 51.1608 30.3127 48.9182 30.889 46.735C31.3968 44.3538 32.6205 42.1849 34.396 40.519L34.394 40.515Z" fill="#E81A46"/>
<path d="M21.3329 15.438C21.1652 15.4902 21.0186 15.5946 20.9145 15.736C20.8103 15.8774 20.7541 16.0484 20.7539 16.224V24.779C20.7539 24.9975 20.8407 25.2071 20.9953 25.3616C21.1498 25.5162 21.3594 25.603 21.5779 25.603C21.7964 25.603 22.006 25.5162 22.1606 25.3616C22.3151 25.2071 22.4019 24.9975 22.4019 24.779V18.866L26.6849 25.066C26.7942 25.2387 26.9567 25.3712 27.148 25.4434C27.3392 25.5156 27.5487 25.5235 27.7449 25.466C27.9474 25.3964 28.1217 25.2627 28.2414 25.0852C28.361 24.9076 28.4195 24.6958 28.4079 24.482L28.3279 16.199C28.3269 16.0908 28.3045 15.9838 28.2621 15.8843C28.2197 15.7847 28.1582 15.6944 28.0809 15.6187C28.0036 15.5429 27.9122 15.4831 27.8118 15.4426C27.7115 15.4022 27.6041 15.3819 27.4959 15.383C27.3877 15.384 27.2808 15.4064 27.1812 15.4488C27.0816 15.4911 26.9914 15.5527 26.9156 15.63C26.8398 15.7072 26.78 15.7987 26.7396 15.899C26.6991 15.9994 26.6789 16.1068 26.6799 16.215L26.7379 22.246L22.2549 15.754C22.1548 15.6101 22.0114 15.5019 21.8456 15.445C21.6798 15.3882 21.5002 15.3857 21.3329 15.438Z" fill="#E81A46"/>
<path d="M39.9959 15.384C39.7773 15.384 39.5678 15.4708 39.4132 15.6254C39.2587 15.7799 39.1719 15.9895 39.1719 16.208V24.772C39.1719 24.9663 39.2405 25.1543 39.3657 25.3029C39.4908 25.4514 39.6645 25.551 39.8559 25.584C40.2025 25.6124 40.5505 25.619 40.8979 25.604C41.3539 25.604 42.0199 25.604 42.9979 25.596C43.2164 25.5948 43.4255 25.5069 43.5792 25.3515C43.7329 25.1961 43.8186 24.9861 43.8174 24.7675C43.8162 24.549 43.7283 24.3399 43.5729 24.1862C43.4175 24.0325 43.2074 23.9468 42.9889 23.948C42.2239 23.948 41.3989 23.955 40.8159 23.955V16.207C40.8156 15.9894 40.7293 15.7806 40.5756 15.6264C40.422 15.4722 40.2136 15.3851 39.9959 15.384Z" fill="#E81A46"/>
<path d="M9.21408 16.208V23.059C9.21568 23.221 9.1741 23.3805 9.0936 23.5211C9.0131 23.6617 8.8966 23.7783 8.75608 23.859C8.21308 24.159 7.63208 23.616 7.59808 23.583C7.44228 23.4345 7.23455 23.3528 7.01933 23.3555C6.80411 23.3582 6.59848 23.4449 6.44641 23.5973C6.29434 23.7496 6.20792 23.9554 6.20561 24.1706C6.20331 24.3858 6.28531 24.5934 6.43408 24.749C6.95923 25.2744 7.6646 25.5804 8.40708 25.6049C8.80995 25.6039 9.20572 25.4988 9.55608 25.3C9.95393 25.0764 10.2848 24.7506 10.5144 24.3562C10.744 23.9619 10.8641 23.5133 10.8621 23.057V16.206C10.8621 15.9874 10.7753 15.7778 10.6207 15.6233C10.4662 15.4688 10.2566 15.382 10.0381 15.382C9.81954 15.382 9.60996 15.4688 9.45543 15.6233C9.3009 15.7778 9.21408 15.9874 9.21408 16.206V16.208Z" fill="#E81A46"/>
<path d="M48.7111 17.108C48.9297 17.108 49.1392 17.0212 49.2938 16.8666C49.4483 16.7121 49.5351 16.5025 49.5351 16.284C49.5351 16.0654 49.4483 15.8558 49.2938 15.7013C49.1392 15.5468 48.9297 15.46 48.7111 15.46H45.1321C44.9136 15.46 44.704 15.5468 44.5494 15.7013C44.3949 15.8558 44.3081 16.0654 44.3081 16.284V24.777C44.3081 24.8852 44.3294 24.9923 44.3708 25.0923C44.4122 25.1923 44.4729 25.2831 44.5494 25.3596C44.626 25.4361 44.7168 25.4968 44.8168 25.5382C44.9167 25.5796 45.0239 25.601 45.1321 25.601H48.7111C48.9297 25.601 49.1392 25.5141 49.2938 25.3596C49.4483 25.2051 49.5351 24.9955 49.5351 24.777C49.5351 24.5584 49.4483 24.3488 49.2938 24.1943C49.1392 24.0398 48.9297 23.953 48.7111 23.953H45.9591V21.353H48.4501C48.6686 21.353 48.8782 21.2661 49.0328 21.1116C49.1873 20.9571 49.2741 20.7475 49.2741 20.529C49.2741 20.3104 49.1873 20.1008 49.0328 19.9463C48.8782 19.7918 48.6686 19.705 48.4501 19.705H45.9591V17.105L48.7111 17.108Z" fill="#E81A46"/>
<path d="M34.1032 17.03C34.7929 17.0288 35.4669 17.2347 36.0382 17.621C36.1277 17.6855 36.2293 17.7314 36.3368 17.756C36.4444 17.7806 36.5559 17.7833 36.6645 17.764C36.7732 17.7447 36.8768 17.7038 36.9694 17.6436C37.0619 17.5835 37.1414 17.5054 37.2031 17.4139C37.2649 17.3225 37.3077 17.2196 37.3289 17.1113C37.3502 17.003 37.3494 16.8915 37.3268 16.7835C37.3041 16.6755 37.26 16.5732 37.197 16.4825C37.1341 16.3919 37.0535 16.3149 36.9602 16.256C36.2979 15.8091 35.5401 15.5238 34.7475 15.4229C33.955 15.322 33.1498 15.4083 32.3967 15.675C31.6435 15.9416 30.9634 16.3812 30.4109 16.9583C29.8585 17.5354 29.449 18.2341 29.2154 18.9981C28.9819 19.7622 28.9307 20.5703 29.0661 21.3577C29.2014 22.1451 29.5195 22.8898 29.9948 23.532C30.4701 24.1742 31.0894 24.696 31.8029 25.0555C32.5164 25.4149 33.3043 25.6021 34.1032 25.6019C36.7662 25.6019 38.6272 23.5019 38.6272 20.4919C38.6272 20.3837 38.6059 20.2766 38.5645 20.1766C38.5231 20.0767 38.4624 19.9858 38.3859 19.9093C38.3094 19.8328 38.2185 19.7721 38.1186 19.7307C38.0186 19.6893 37.9114 19.668 37.8032 19.668H35.2392C35.0207 19.668 34.8111 19.7548 34.6566 19.9093C34.502 20.0638 34.4152 20.2734 34.4152 20.4919C34.4152 20.7105 34.502 20.9201 34.6566 21.0746C34.8111 21.2291 35.0207 21.316 35.2392 21.316H36.9122C36.8689 22.0308 36.554 22.7021 36.032 23.1925C35.51 23.6829 34.8204 23.9553 34.1042 23.954C33.1861 23.954 32.3055 23.5892 31.6562 22.94C31.007 22.2907 30.6422 21.4101 30.6422 20.4919C30.6422 19.5738 31.007 18.6932 31.6562 18.044C32.3055 17.3947 33.1861 17.03 34.1042 17.03H34.1032Z" fill="#E81A46"/>
<path d="M12.9842 15.384C12.7656 15.384 12.5561 15.4708 12.4015 15.6254C12.247 15.7799 12.1602 15.9895 12.1602 16.208V22.108C12.158 22.7045 12.3172 23.2904 12.6209 23.8037C12.9246 24.3171 13.3614 24.7387 13.8852 25.024C14.4888 25.4094 15.1911 25.6115 15.9072 25.606H15.9132C16.5313 25.611 17.1419 25.4698 17.6952 25.194C18.3073 24.9416 18.8308 24.513 19.1991 23.9627C19.5674 23.4125 19.7641 22.7652 19.7642 22.103V16.211C19.7642 15.9925 19.6774 15.7829 19.5228 15.6284C19.3683 15.4738 19.1587 15.387 18.9402 15.387C18.7216 15.387 18.5121 15.4738 18.3575 15.6284C18.203 15.7829 18.1162 15.9925 18.1162 16.211V22.103C18.1147 22.4603 18.0021 22.8082 17.7938 23.0986C17.5856 23.3889 17.2921 23.6071 16.9542 23.723C16.6306 23.8825 16.2739 23.9634 15.9132 23.959C15.5108 23.9654 15.1155 23.8534 14.7762 23.637C14.4883 23.4988 14.2452 23.2822 14.0747 23.0121C13.9042 22.742 13.8132 22.4294 13.8122 22.11V16.21C13.8122 15.9915 13.7254 15.7819 13.5708 15.6274C13.4163 15.4728 13.2067 15.386 12.9882 15.386L12.9842 15.384Z" fill="#E81A46"/>
</svg>
